# xmcd
#
# Track frame offsets:
# 150
# 20518
# 30500
# 53910
# 72577
# 90832
# 105583
# 127520
# 142115
# 155479
# 174677
# 192802
# 223265
#
# Disc length: 3273 seconds
#
#
# Revision: 0
# Processed by: cddbd v1.5.1PL0 Copyright (c) Steve Scherf et al.
# Submitted via: FreeRIP 2.30 
#
DISCID=af0cc70d
DTITLE=Toxpack - Aggressive Kunst
DYEAR=1900
DGENRE=
TTITLE0=Tox 05
TTITLE1=Bang, Bang
TTITLE2=Auf Der Flucht
TTITLE3=Dafür Oder Dagegen
TTITLE4=Suff und Wilde Spiele
TTITLE5=Aggressive Kunst
TTITLE6=WM 06
TTITLE7=Hass Dich
TTITLE8=Wie Ich Bin
TTITLE9=Weisheit
TTITLE10=Blind
TTITLE11=March II
TTITLE12=Video
EXTD=
EXTT0=
EXTT1=
EXTT2=
EXTT3=
EXTT4=
EXTT5=
EXTT6=
EXTT7=
EXTT8=
EXTT9=
EXTT10=
EXTT11=
EXTT12=
PLAYORDER=
